<?xml version="1.0" encoding="UTF-8" standalone="no"?>
<svg
   xmlns:dc="http://purl.org/dc/elements/1.1/"
   xmlns:cc="http://creativecommons.org/ns#"
   xmlns:rdf="http://www.w3.org/1999/02/22-rdf-syntax-ns#"
   xmlns:svg="http://www.w3.org/2000/svg"
   xmlns="http://www.w3.org/2000/svg"
   xmlns:sodipodi="http://sodipodi.sourceforge.net/DTD/sodipodi-0.dtd"
   xmlns:inkscape="http://www.inkscape.org/namespaces/inkscape"
   version="1.1"
   x="0px"
   y="0px"
   viewBox="0 0 100 100"
   enable-background="new 0 0 100 100"
   xml:space="preserve"
   id="svg2"
   inkscape:version="0.91 r13725"
   sodipodi:docname="AppIconNoWarning.svg"
   inkscape:export-filename="C:\Users\Juan\Documents\Visual Studio 2015\Projects\AppleNotificationService\AppleNotificationCenter\Resources\AppIconNoWarning.png"
   inkscape:export-xdpi="230.39999"
   inkscape:export-ydpi="230.39999"><metadata
     id="metadata22"><rdf:RDF><cc:Work
         rdf:about=""><dc:format>image/svg+xml</dc:format><dc:type
           rdf:resource="http://purl.org/dc/dcmitype/StillImage" /><dc:title></dc:title></cc:Work></rdf:RDF></metadata><defs
     id="defs20" /><sodipodi:namedview
     pagecolor="#ffffff"
     bordercolor="#666666"
     borderopacity="1"
     objecttolerance="10"
     gridtolerance="10"
     guidetolerance="10"
     inkscape:pageopacity="0"
     inkscape:pageshadow="2"
     inkscape:window-width="1680"
     inkscape:window-height="987"
     id="namedview18"
     showgrid="false"
     inkscape:zoom="5.6568542"
     inkscape:cx="17.3847"
     inkscape:cy="50"
     inkscape:window-x="-8"
     inkscape:window-y="-8"
     inkscape:window-maximized="1"
     inkscape:current-layer="g4" /><rect
     style="fill:#000000"
     id="rect3350"
     width="41.896076"
     height="83.792152"
     x="29.521708"
     y="8.0761185" /><g
     id="g4"><path
       d="M29.918,15.061h40.167v64.747H29.918V15.061z M25.5,87.098c0,4,3.257,7.257,7.261,7.257h34.483   c4.001,0,7.256-3.257,7.256-7.257V12.906c0-4.003-3.255-7.26-7.256-7.26H32.761c-4.004,0-7.261,3.257-7.261,7.26V87.098z    M52.43,11.741H47.57c-0.72,0-1.301-0.582-1.301-1.3c0-0.716,0.581-1.301,1.301-1.301h4.859c0.721,0,1.3,0.585,1.3,1.301   C53.729,11.16,53.15,11.741,52.43,11.741z M50.001,90.856c-2.265,0-4.104-1.838-4.104-4.105c0-2.265,1.839-4.102,4.104-4.102   c2.266,0,4.102,1.837,4.102,4.102C54.103,89.019,52.267,90.856,50.001,90.856z"
       id="path16"
       style="fill:#ffffff" /></g></svg>