<?xml version="1.0" encoding="UTF-8" standalone="no"?>
<svg
   xmlns:dc="http://purl.org/dc/elements/1.1/"
   xmlns:cc="http://creativecommons.org/ns#"
   xmlns:rdf="http://www.w3.org/1999/02/22-rdf-syntax-ns#"
   xmlns:svg="http://www.w3.org/2000/svg"
   xmlns="http://www.w3.org/2000/svg"
   xmlns:sodipodi="http://sodipodi.sourceforge.net/DTD/sodipodi-0.dtd"
   xmlns:inkscape="http://www.inkscape.org/namespaces/inkscape"
   version="1.1"
   x="0px"
   y="0px"
   viewBox="0 0 100 100"
   enable-background="new 0 0 100 100"
   xml:space="preserve"
   id="svg2"
   inkscape:version="0.91 r13725"
   sodipodi:docname="AppIcon.svg"><metadata
     id="metadata22"><rdf:RDF><cc:Work
         rdf:about=""><dc:format>image/svg+xml</dc:format><dc:type
           rdf:resource="http://purl.org/dc/dcmitype/StillImage" /><dc:title></dc:title></cc:Work></rdf:RDF></metadata><defs
     id="defs20" /><sodipodi:namedview
     pagecolor="#ffffff"
     bordercolor="#666666"
     borderopacity="1"
     objecttolerance="10"
     gridtolerance="10"
     guidetolerance="10"
     inkscape:pageopacity="0"
     inkscape:pageshadow="2"
     inkscape:window-width="1680"
     inkscape:window-height="987"
     id="namedview18"
     showgrid="false"
     inkscape:zoom="5.6568542"
     inkscape:cx="50"
     inkscape:cy="50"
     inkscape:window-x="-8"
     inkscape:window-y="-8"
     inkscape:window-maximized="1"
     inkscape:current-layer="svg2" /><rect
     style="fill:#000000"
     id="rect3350"
     width="41.896076"
     height="83.792152"
     x="29.521708"
     y="8.0761185" /><g
     id="g4"><g
       id="g6"
       style="fill:#ffffff"><g
         id="g8"
         style="fill:#ffffff"><path
           d="M66.546,60.528H33.454c-0.394,0-0.757-0.21-0.954-0.551c-0.197-0.342-0.197-0.762,0-1.103l16.544-28.657     c0.197-0.341,0.562-0.551,0.954-0.551c0.395,0,0.759,0.21,0.956,0.551l16.547,28.657c0.197,0.342,0.197,0.762,0,1.104     C67.304,60.318,66.939,60.528,66.546,60.528z M35.365,58.322h29.27L49.998,32.975L35.365,58.322z"
           id="path10"
           style="fill:#ffffff" /></g><g
         id="g12"
         style="fill:#ffffff"><path
           d="M49.37,51.432c-0.117-1.076-0.238-2-0.358-2.765c-0.116-0.764-0.229-1.426-0.331-1.98     c-0.104-0.554-0.2-1.033-0.291-1.431c-0.094-0.402-0.169-0.779-0.232-1.135c-0.063-0.357-0.111-0.721-0.151-1.089     c-0.034-0.367-0.05-0.792-0.05-1.279c0-0.442,0.06-0.843,0.177-1.192c0.121-0.353,0.276-0.653,0.467-0.894     c0.187-0.243,0.405-0.427,0.653-0.558c0.241-0.131,0.492-0.196,0.748-0.196c0.254,0,0.505,0.065,0.748,0.196     c0.248,0.13,0.466,0.315,0.652,0.558c0.191,0.241,0.347,0.541,0.466,0.894c0.118,0.35,0.178,0.75,0.178,1.192     c0,0.486-0.018,0.912-0.052,1.279c-0.035,0.369-0.086,0.732-0.149,1.089c-0.065,0.356-0.137,0.733-0.226,1.135     c-0.089,0.398-0.185,0.877-0.286,1.431c-0.104,0.554-0.213,1.215-0.332,1.974c-0.121,0.763-0.237,1.685-0.357,2.771H49.37z      M48.288,54.871c0,0.239,0.042,0.463,0.13,0.671c0.089,0.212,0.21,0.393,0.362,0.547c0.155,0.155,0.339,0.277,0.548,0.362     c0.211,0.088,0.435,0.134,0.673,0.134c0.237,0,0.463-0.046,0.677-0.134c0.215-0.085,0.398-0.207,0.554-0.362     c0.155-0.154,0.279-0.335,0.369-0.547c0.089-0.208,0.137-0.433,0.137-0.671c0-0.237-0.048-0.461-0.137-0.669     c-0.09-0.213-0.214-0.393-0.369-0.548s-0.339-0.279-0.554-0.371c-0.214-0.09-0.439-0.136-0.677-0.136     c-0.238,0-0.462,0.045-0.673,0.136c-0.209,0.092-0.393,0.215-0.548,0.371c-0.152,0.155-0.273,0.335-0.362,0.548     C48.33,54.409,48.288,54.634,48.288,54.871z"
           id="path14"
           style="fill:#ffffff" /></g></g><path
       d="M29.918,15.061h40.167v64.747H29.918V15.061z M25.5,87.098c0,4,3.257,7.257,7.261,7.257h34.483   c4.001,0,7.256-3.257,7.256-7.257V12.906c0-4.003-3.255-7.26-7.256-7.26H32.761c-4.004,0-7.261,3.257-7.261,7.26V87.098z    M52.43,11.741H47.57c-0.72,0-1.301-0.582-1.301-1.3c0-0.716,0.581-1.301,1.301-1.301h4.859c0.721,0,1.3,0.585,1.3,1.301   C53.729,11.16,53.15,11.741,52.43,11.741z M50.001,90.856c-2.265,0-4.104-1.838-4.104-4.105c0-2.265,1.839-4.102,4.104-4.102   c2.266,0,4.102,1.837,4.102,4.102C54.103,89.019,52.267,90.856,50.001,90.856z"
       id="path16"
       style="fill:#ffffff" /></g></svg>